# xmcd
# 
# Track frame offsets:
#     150
#     15227
#     26045
#     38285
#     49937
#     67117
#     83352
#     97222
#     113882
#     125995
#     136160
#     155900
# 
# Disc length: 2393
# 
# Revision: 5
# Processed by: cddbd v1.5.2PL0 Copyright (c) Steve Scherf et al.
# Submitted via: fre:ac v1.0.17
# 
DISCID=9d09570c
DTITLE=Various Artist - New Country - January 1995
DYEAR=1995
DGENRE=Country
TTITLE0=The Bottle Rockets - Welfare Music
TTITLE1=Joe Ely - Whiskey And Women And Money To Burn
TTITLE2=Chris Thile - Shadow Ridge
TTITLE3=The Spanic Family - Billy
TTITLE4=Stephen Bruton - To Find My Love
TTITLE5=Lisa Brokop - Let Me Live Another Day
TTITLE6=Shania Twain - No One Needs To Know
TTITLE7=Beausoleil - Quel Espoir
TTITLE8=Nick Lowe - Where's My Everything
TTITLE9=Johnny Powers - Bigger Heartaches
TTITLE10=Lyle Lovett - Just The Morning
TTITLE11=Victoria Williams - Crazy Mary
EXTD=
EXTT0=
EXTT1=
EXTT2=
EXTT3=
EXTT4=
EXTT5=
EXTT6=
EXTT7=
EXTT8=
EXTT9=
EXTT10=
EXTT11=
PLAYORDER=
